<svg width="68" height="68" viewBox="0 0 68 68" fill="none" xmlns="http://www.w3.org/2000/svg">
<path d="M44.1943 44.505L38.628 35.4461C41.6458 35.9709 48.4116 37.525 51.3321 39.5431C55.4142 40.9913 64.3869 47.339 67.6207 61.1445C68.0028 62.5812 68.0507 65.3842 65.1855 65.1029L51.0492 64.777C48.9857 64.9721 44.7567 65.0861 44.349 63.9814L19.6784 25.3388L32.2457 3.20632C32.8207 1.76506 34.3806 -0.431971 36.0202 2.30994L58.0397 40.5713C55.5493 38.7361 49.3641 34.7781 44.5464 33.6277L34.7968 16.9378C34.6776 16.7337 34.383 16.7325 34.2622 16.9356L29.5435 24.8672C29.4847 24.9659 29.4853 25.089 29.545 25.1871L49.1809 57.471C49.2357 57.5611 49.3325 57.6172 49.4378 57.62L58.0758 57.8483C58.3094 57.8545 58.4663 57.6131 58.3568 57.4067C56.4308 53.7779 51.2872 46.7778 44.1943 44.505Z" fill="#F36F2E"/>
<path d="M1.87787 61.0652C1.94665 55.9145 6.32541 43.7706 23.2901 36.4001L27.7769 43.2426C22.3796 45.2176 12.3222 50.3825 11.1123 56.3983C11.076 56.5787 11.2138 56.7433 11.3977 56.7507L19.1103 57.0602C19.356 57.0701 19.515 56.8039 19.3899 56.5922L17.3831 53.1979L23.0674 48.9032L30.8962 60.7618C31.7603 61.8985 32.7752 64.1946 29.9218 64.2855L9.44086 63.8278C7.82342 63.7917 6.18161 64.0572 4.58765 63.7802C3.21683 63.542 1.93349 62.8117 1.87787 61.0652Z" fill="#FCFCFC"/>
</svg>
