<svg width="404" height="358" viewBox="0 0 404 358" fill="none" xmlns="http://www.w3.org/2000/svg">
<path d="M229.709 164.233L209.23 130.906C220.333 132.837 245.224 138.554 255.969 145.979C270.987 151.306 303.997 174.659 315.894 225.45C317.3 230.735 317.476 241.047 306.935 240.012L254.928 238.814C247.336 239.531 231.778 239.951 230.278 235.887L139.516 93.7213L185.75 12.2965C187.866 6.99412 193.605 -1.08872 199.637 8.99872L280.646 149.761C271.484 143.01 248.729 128.448 231.004 124.216L195.136 62.8142C194.697 62.0633 193.613 62.059 193.169 62.8063L175.809 91.9863C175.593 92.3495 175.595 92.8022 175.815 93.1632L248.055 211.935C248.256 212.266 248.612 212.473 249 212.483L280.778 213.323C281.638 213.346 282.215 212.458 281.812 211.698C274.727 198.348 255.803 172.595 229.709 164.233Z" fill="#F36F2E"/>
<path d="M74.0309 225.158C74.284 206.209 90.3933 161.532 152.806 134.416L169.313 159.589C149.456 166.855 112.456 185.857 108.004 207.989C107.871 208.653 108.378 209.258 109.054 209.285L137.429 210.424C138.333 210.46 138.918 209.481 138.457 208.702L131.074 196.215L151.987 180.415L180.789 224.042C183.968 228.224 187.701 236.671 177.204 237.006L101.855 235.322C95.9044 235.189 89.8643 236.166 84.0001 235.147C78.9569 234.27 74.2355 231.584 74.0309 225.158Z" fill="#FCFCFC"/>
<path d="M57.6772 320.13H39.4117L36.6353 328.532H21.5845L40.3615 277.023H56.8735L75.5774 328.532H60.4535L57.6772 320.13ZM54.0971 309.171L48.5444 292.513L43.0648 309.171H54.0971ZM133.799 287.179C138.962 287.179 143.005 288.738 145.928 291.855C148.899 294.972 150.384 299.234 150.384 304.641V328.532H136.064V306.541C136.064 304.349 135.455 302.644 134.238 301.426C133.02 300.208 131.364 299.6 129.27 299.6C127.175 299.6 125.519 300.208 124.301 301.426C123.084 302.644 122.475 304.349 122.475 306.541V328.532H108.155V306.541C108.155 304.349 107.546 302.644 106.328 301.426C105.159 300.208 103.527 299.6 101.433 299.6C99.2897 299.6 97.6092 300.208 96.3915 301.426C95.1738 302.644 94.565 304.349 94.565 306.541V328.532H80.2448V287.544H94.565V292.951C95.8314 291.197 97.4631 289.809 99.4602 288.786C101.506 287.715 103.844 287.179 106.474 287.179C109.494 287.179 112.173 287.837 114.511 289.152C116.898 290.467 118.773 292.318 120.137 294.704C121.598 292.464 123.522 290.662 125.909 289.298C128.295 287.885 130.926 287.179 133.799 287.179ZM155.892 308.002C155.892 303.764 156.647 300.062 158.157 296.896C159.716 293.73 161.81 291.295 164.44 289.59C167.119 287.885 170.09 287.033 173.354 287.033C176.179 287.033 178.614 287.593 180.66 288.713C182.706 289.834 184.289 291.344 185.409 293.243V287.544H199.729V328.532H185.409V322.833C184.289 324.733 182.682 326.243 180.587 327.363C178.541 328.484 176.13 329.044 173.354 329.044C170.09 329.044 167.119 328.191 164.44 326.486C161.81 324.782 159.716 322.346 158.157 319.18C156.647 315.966 155.892 312.239 155.892 308.002ZM185.409 308.002C185.409 305.372 184.679 303.301 183.217 301.791C181.805 300.282 180.051 299.527 177.957 299.527C175.814 299.527 174.036 300.282 172.623 301.791C171.211 303.253 170.505 305.323 170.505 308.002C170.505 310.632 171.211 312.726 172.623 314.285C174.036 315.795 175.814 316.55 177.957 316.55C180.051 316.55 181.805 315.795 183.217 314.285C184.679 312.775 185.409 310.681 185.409 308.002ZM222.21 293.243C223.33 291.295 224.913 289.785 226.959 288.713C229.004 287.593 231.415 287.033 234.192 287.033C237.455 287.033 240.402 287.885 243.032 289.59C245.711 291.295 247.806 293.73 249.316 296.896C250.874 300.062 251.654 303.764 251.654 308.002C251.654 312.239 250.874 315.966 249.316 319.18C247.806 322.346 245.711 324.782 243.032 326.486C240.402 328.191 237.455 329.044 234.192 329.044C231.415 329.044 229.004 328.508 226.959 327.436C224.913 326.316 223.33 324.782 222.21 322.833V328.532H207.889V274.466H222.21V293.243ZM237.114 308.002C237.114 305.323 236.384 303.253 234.922 301.791C233.51 300.282 231.756 299.527 229.662 299.527C227.568 299.527 225.79 300.282 224.328 301.791C222.916 303.301 222.21 305.372 222.21 308.002C222.21 310.681 222.916 312.775 224.328 314.285C225.79 315.795 227.568 316.55 229.662 316.55C231.756 316.55 233.51 315.795 234.922 314.285C236.384 312.726 237.114 310.632 237.114 308.002ZM264.782 283.745C262.249 283.745 260.203 283.063 258.645 281.699C257.135 280.287 256.38 278.533 256.38 276.439C256.38 274.296 257.135 272.518 258.645 271.105C260.203 269.693 262.249 268.987 264.782 268.987C267.266 268.987 269.263 269.693 270.773 271.105C272.332 272.518 273.111 274.296 273.111 276.439C273.111 278.533 272.332 280.287 270.773 281.699C269.263 283.063 267.266 283.745 264.782 283.745ZM271.869 287.544V328.532H257.549V287.544H271.869ZM294.344 274.466V328.532H280.024V274.466H294.344ZM316.819 274.466V328.532H302.499V274.466H316.819ZM342.436 329.044C338.734 329.044 335.422 328.435 332.5 327.217C329.626 325.951 327.337 324.246 325.632 322.103C323.976 319.911 323.05 317.451 322.856 314.723H336.737C336.932 316.039 337.541 317.061 338.564 317.792C339.587 318.523 340.853 318.888 342.363 318.888C343.532 318.888 344.458 318.644 345.14 318.157C345.821 317.67 346.162 317.037 346.162 316.258C346.162 315.235 345.602 314.48 344.482 313.993C343.362 313.506 341.511 312.97 338.929 312.385C336.007 311.801 333.571 311.143 331.623 310.413C329.675 309.682 327.97 308.489 326.509 306.833C325.096 305.177 324.39 302.936 324.39 300.111C324.39 297.676 325.047 295.484 326.363 293.535C327.678 291.538 329.602 289.955 332.134 288.786C334.716 287.617 337.809 287.033 341.413 287.033C346.771 287.033 350.984 288.348 354.053 290.978C357.122 293.609 358.9 297.067 359.387 301.353H346.455C346.211 300.038 345.627 299.039 344.701 298.358C343.824 297.627 342.631 297.262 341.121 297.262C339.952 297.262 339.051 297.481 338.418 297.919C337.833 298.358 337.541 298.966 337.541 299.746C337.541 300.72 338.101 301.475 339.221 302.011C340.342 302.498 342.144 303.009 344.628 303.545C347.599 304.178 350.059 304.884 352.007 305.664C354.004 306.443 355.734 307.71 357.195 309.463C358.705 311.168 359.46 313.506 359.46 316.477C359.46 318.864 358.753 321.007 357.341 322.906C355.977 324.806 354.004 326.316 351.423 327.436C348.89 328.508 345.895 329.044 342.436 329.044Z" fill="#FCFCFC"/>
</svg>
