<svg width="68" height="68" viewBox="0 0 68 68" fill="none" xmlns="http://www.w3.org/2000/svg">
<path d="M44.1943 44.505L38.628 35.4461C41.6458 35.9709 48.4116 37.525 51.3321 39.5431C55.4142 40.9913 64.3869 47.339 67.6207 61.1445C68.0028 62.5812 68.0507 65.3842 65.1855 65.1029L51.0492 64.777C48.9857 64.9721 44.7567 65.0861 44.349 63.9814L19.6784 25.3388L32.2457 3.20632C32.8207 1.76506 34.3806 -0.431971 36.0202 2.30994L58.0397 40.5713C55.5493 38.7361 49.3641 34.7781 44.5464 33.6277L34.7968 16.9378C34.6776 16.7337 34.383 16.7325 34.2622 16.9356L29.5435 24.8672C29.4847 24.9659 29.4853 25.089 29.545 25.1871L49.1809 57.471C49.2357 57.5611 49.3325 57.6172 49.4378 57.62L58.0758 57.8483C58.3094 57.8545 58.4663 57.6131 58.3568 57.4067C56.4308 53.7779 51.2872 46.7778 44.1943 44.505Z" fill="#F36F2E"/>
<path d="M1.87835 61.0652C1.94714 55.9145 6.3259 43.7706 23.2906 36.4001L27.7774 43.2426C22.3801 45.2176 12.3227 50.3825 11.1128 56.3983C11.0765 56.5787 11.2143 56.7433 11.3982 56.7507L19.1108 57.0602C19.3565 57.0701 19.5155 56.8039 19.3904 56.5922L17.3836 53.1979L23.0679 48.9032L30.8967 60.7618C31.7608 61.8985 32.7756 64.1946 29.9223 64.2855L9.44135 63.8278C7.82391 63.7917 6.1821 64.0572 4.58814 63.7802C3.21732 63.542 1.93398 62.8117 1.87835 61.0652Z" fill="#373737"/>
</svg>
