<svg width="77" height="77" viewBox="0 0 77 77" fill="none" xmlns="http://www.w3.org/2000/svg">
<path d="M46.6073 36.5434L42.0367 29.1051C44.5146 29.536 50.0701 30.8121 52.4681 32.4692C55.8199 33.6583 63.1875 38.8704 65.8428 50.2062C66.1565 51.3859 66.1958 53.6874 63.8432 53.4564L52.2358 53.1888C50.5415 53.349 47.069 53.4426 46.7342 52.5356L26.4771 20.8059L36.7961 2.63286C37.2683 1.44943 38.5492 -0.354561 39.8955 1.89684L57.9758 33.3134C55.9309 31.8066 50.8522 28.5566 46.8963 27.612L38.8909 13.9078C38.793 13.7402 38.5512 13.7393 38.4519 13.9061L34.5774 20.4187C34.5291 20.4998 34.5296 20.6008 34.5786 20.6814L50.7018 47.1899C50.7468 47.2638 50.8262 47.3099 50.9127 47.3122L58.0054 47.4997C58.1972 47.5047 58.3261 47.3066 58.2361 47.1371C56.6547 44.1575 52.4312 38.4097 46.6073 36.5434Z" fill="#F36F2E"/>
<path d="M11.8617 50.1412C11.9182 45.9119 15.5136 35.9405 29.4434 29.8886L33.1275 35.5069C28.6958 37.1287 20.4376 41.3696 19.4442 46.3092C19.4144 46.4574 19.5275 46.5925 19.6785 46.5986L26.0114 46.8527C26.2131 46.8608 26.3437 46.6422 26.2409 46.4684L24.5931 43.6813L29.2606 40.1549L35.6888 49.8921C36.3983 50.8254 37.2316 52.7108 34.8887 52.7854L18.0717 52.4096C16.7436 52.3799 15.3955 52.5979 14.0867 52.3705C12.9611 52.1749 11.9074 51.5752 11.8617 50.1412Z" fill="#FCFCFC"/>
<path d="M8.18592 68.6648H4.10927L3.48962 70.5401H0.130453L4.32125 59.0439H8.00655L12.181 70.5401H8.80557L8.18592 68.6648ZM7.3869 66.2188L6.14759 62.5009L4.9246 66.2188H7.3869ZM25.1755 61.3106C26.3278 61.3106 27.2301 61.6584 27.8824 62.3542C28.5455 63.0499 28.8771 64.0011 28.8771 65.2078V70.5401H25.681V65.6318C25.681 65.1426 25.5451 64.7621 25.2733 64.4903C25.0016 64.2186 24.632 64.0827 24.1645 64.0827C23.697 64.0827 23.3274 64.2186 23.0556 64.4903C22.7839 64.7621 22.648 65.1426 22.648 65.6318V70.5401H19.4519V65.6318C19.4519 65.1426 19.316 64.7621 19.0442 64.4903C18.7833 64.2186 18.4191 64.0827 17.9517 64.0827C17.4733 64.0827 17.0983 64.2186 16.8265 64.4903C16.5547 64.7621 16.4189 65.1426 16.4189 65.6318V70.5401H13.2228V61.3921H16.4189V62.5988C16.7015 62.2074 17.0657 61.8976 17.5114 61.6693C17.968 61.4301 18.4898 61.3106 19.0768 61.3106C19.7508 61.3106 20.3487 61.4573 20.8706 61.7508C21.4032 62.0444 21.8218 62.4575 22.1262 62.9901C22.4523 62.4901 22.8817 62.0878 23.4144 61.7834C23.9471 61.4682 24.5341 61.3106 25.1755 61.3106ZM30.1063 65.9579C30.1063 65.0122 30.2748 64.186 30.6119 63.4793C30.9597 62.7727 31.4272 62.2292 32.0142 61.8487C32.6121 61.4682 33.2753 61.2779 34.0036 61.2779C34.6342 61.2779 35.1777 61.403 35.6343 61.653C36.0909 61.903 36.4442 62.24 36.6942 62.664V61.3921H39.8903V70.5401H36.6942V69.2682C36.4442 69.6922 36.0854 70.0292 35.618 70.2792C35.1614 70.5292 34.6233 70.6542 34.0036 70.6542C33.2753 70.6542 32.6121 70.464 32.0142 70.0835C31.4272 69.703 30.9597 69.1595 30.6119 68.4529C30.2748 67.7354 30.1063 66.9037 30.1063 65.9579ZM36.6942 65.9579C36.6942 65.3709 36.5312 64.9089 36.205 64.5719C35.8898 64.2349 35.4984 64.0664 35.0309 64.0664C34.5526 64.0664 34.1558 64.2349 33.8406 64.5719C33.5253 64.898 33.3677 65.36 33.3677 65.9579C33.3677 66.545 33.5253 67.0124 33.8406 67.3603C34.1558 67.6973 34.5526 67.8658 35.0309 67.8658C35.4984 67.8658 35.8898 67.6973 36.205 67.3603C36.5312 67.0233 36.6942 66.5558 36.6942 65.9579ZM44.9077 62.664C45.1577 62.2292 45.511 61.8922 45.9676 61.653C46.4242 61.403 46.9623 61.2779 47.5819 61.2779C48.3103 61.2779 48.968 61.4682 49.555 61.8487C50.153 62.2292 50.6204 62.7727 50.9574 63.4793C51.3053 64.186 51.4792 65.0122 51.4792 65.9579C51.4792 66.9037 51.3053 67.7354 50.9574 68.4529C50.6204 69.1595 50.153 69.703 49.555 70.0835C48.968 70.464 48.3103 70.6542 47.5819 70.6542C46.9623 70.6542 46.4242 70.5347 45.9676 70.2955C45.511 70.0455 45.1577 69.703 44.9077 69.2682V70.5401H41.7116V58.4732H44.9077V62.664ZM48.2342 65.9579C48.2342 65.36 48.0711 64.898 47.745 64.5719C47.4298 64.2349 47.0384 64.0664 46.5709 64.0664C46.1035 64.0664 45.7067 64.2349 45.3806 64.5719C45.0653 64.9089 44.9077 65.3709 44.9077 65.9579C44.9077 66.5558 45.0653 67.0233 45.3806 67.3603C45.7067 67.6973 46.1035 67.8658 46.5709 67.8658C47.0384 67.8658 47.4298 67.6973 47.745 67.3603C48.0711 67.0124 48.2342 66.545 48.2342 65.9579ZM54.4093 60.5441C53.844 60.5441 53.3874 60.3919 53.0396 60.0876C52.7026 59.7723 52.5341 59.3809 52.5341 58.9135C52.5341 58.4352 52.7026 58.0384 53.0396 57.7231C53.3874 57.4078 53.844 57.2502 54.4093 57.2502C54.9637 57.2502 55.4095 57.4078 55.7465 57.7231C56.0943 58.0384 56.2683 58.4352 56.2683 58.9135C56.2683 59.3809 56.0943 59.7723 55.7465 60.0876C55.4095 60.3919 54.9637 60.5441 54.4093 60.5441ZM55.9911 61.3921V70.5401H52.795V61.3921H55.9911ZM61.0073 58.4732V70.5401H57.8112V58.4732H61.0073ZM66.0235 58.4732V70.5401H62.8274V58.4732H66.0235ZM71.7408 70.6542C70.9146 70.6542 70.1754 70.5184 69.5231 70.2466C68.8817 69.9639 68.3708 69.5834 67.9903 69.1051C67.6207 68.6159 67.4141 68.0669 67.3707 67.4581H70.4689C70.5124 67.7517 70.6483 67.98 70.8766 68.143C71.1049 68.3061 71.3875 68.3876 71.7245 68.3876C71.9854 68.3876 72.192 68.3333 72.3442 68.2246C72.4964 68.1158 72.5725 67.9745 72.5725 67.8006C72.5725 67.5723 72.4475 67.4038 72.1974 67.2951C71.9474 67.1864 71.5343 67.0668 70.9581 66.9363C70.3059 66.8059 69.7623 66.6591 69.3275 66.4961C68.8926 66.333 68.5121 66.0667 68.186 65.697C67.8707 65.3274 67.7131 64.8273 67.7131 64.1968C67.7131 63.6533 67.8599 63.1641 68.1534 62.7292C68.4469 62.2835 68.8763 61.9302 69.4416 61.6693C70.0178 61.4084 70.7081 61.2779 71.5125 61.2779C72.7084 61.2779 73.6487 61.5715 74.3336 62.1585C75.0185 62.7455 75.4153 63.5174 75.524 64.474H72.6377C72.5833 64.1805 72.4529 63.9577 72.2463 63.8055C72.0507 63.6424 71.7843 63.5609 71.4473 63.5609C71.1864 63.5609 70.9853 63.6098 70.844 63.7076C70.7135 63.8055 70.6483 63.9414 70.6483 64.1153C70.6483 64.3327 70.7733 64.5012 71.0233 64.6208C71.2734 64.7295 71.6756 64.8437 72.23 64.9632C72.8932 65.1046 73.4422 65.2622 73.877 65.4361C74.3227 65.6101 74.7086 65.8927 75.0348 66.2841C75.3718 66.6646 75.5403 67.1864 75.5403 67.8495C75.5403 68.3822 75.3826 68.8605 75.0674 69.2845C74.763 69.7085 74.3227 70.0455 73.7465 70.2955C73.1813 70.5347 72.5127 70.6542 71.7408 70.6542Z" fill="#FCFCFC"/>
</svg>
